<svg width="14" height="14" viewBox="0 0 14 14" fill="none" xmlns="http://www.w3.org/2000/svg">
<circle cx="6.99935" cy="7.00033" r="5.83333" fill="#7940F3"/>
<path d="M7.125 10C6.58333 10 6.11458 9.87569 5.71875 9.62707C5.32812 9.37293 5.02604 9.0221 4.8125 8.57459C4.60417 8.12155 4.5 7.59945 4.5 7.00829C4.5 6.4116 4.60417 5.8895 4.8125 5.44199C5.02604 4.98895 5.32812 4.63536 5.71875 4.38122C6.11458 4.12707 6.58333 4 7.125 4C7.77604 4 8.30729 4.17127 8.71875 4.51381C9.13021 4.85083 9.39062 5.32873 9.5 5.94751H8.46875C8.39583 5.62155 8.2474 5.36464 8.02344 5.1768C7.79948 4.98895 7.4974 4.89503 7.11719 4.89503C6.77344 4.89503 6.47656 4.98066 6.22656 5.15193C5.98177 5.31768 5.79167 5.56077 5.65625 5.88122C5.52604 6.19613 5.46094 6.57182 5.46094 7.00829C5.46094 7.44475 5.52604 7.82044 5.65625 8.13536C5.79167 8.44475 5.98177 8.68508 6.22656 8.85635C6.47656 9.0221 6.77344 9.10497 7.11719 9.10497C7.4974 9.10497 7.79948 9.01934 8.02344 8.84807C8.2474 8.67127 8.39583 8.42818 8.46875 8.11878H9.5C9.39583 8.70442 9.13542 9.16575 8.71875 9.50276C8.30729 9.83425 7.77604 10 7.125 10Z" fill="white"/>
</svg>
