<svg width="32" height="32" viewBox="0 0 32 32" fill="none" xmlns="http://www.w3.org/2000/svg">
<g clip-path="url(#clip0_6775_5300)">
<rect width="32" height="32" rx="16" fill="#7859BA"/>
<circle cx="16.25" cy="34" r="15.5" fill="#91D898" stroke="#BA4A6A"/>
<path d="M5.75 16C5.75 13.2386 7.98858 11 10.75 11H20.75C23.5114 11 25.75 13.2386 25.75 16V26H5.75V16Z" fill="#BA4A6A"/>
<circle cx="15.75" cy="16" r="9.5" fill="#EFD2DA" stroke="#BA4A6A"/>
<circle cx="15.5" cy="16.5" r="9" fill="#EFD2DA" stroke="#BA4A6A"/>
<path fill-rule="evenodd" clip-rule="evenodd" d="M25.4117 13.6266C24.5478 13.8699 23.6366 14 22.695 14C18.9233 14 15.6392 11.9119 13.9359 8.82858C12.5617 12.1418 9.45739 14.5563 5.75 14.945C6.27708 9.91808 10.5285 6 15.695 6C20.4001 6 24.3462 9.24943 25.4117 13.6266Z" fill="#BA4A6A"/>
<path d="M24.5 6C24.5 6.19535 24.3817 6.46102 23.9832 6.77503C23.5904 7.08459 22.9911 7.38524 22.2058 7.64698C20.6406 8.16872 18.4465 8.5 16 8.5C13.5535 8.5 11.3594 8.16872 9.79415 7.64698C9.00893 7.38524 8.40955 7.08459 8.01675 6.77503C7.61831 6.46102 7.5 6.19535 7.5 6C7.5 5.80465 7.61831 5.53898 8.01675 5.22497C8.40955 4.91541 9.00893 4.61476 9.79415 4.35302C11.3594 3.83128 13.5535 3.5 16 3.5C18.4465 3.5 20.6406 3.83128 22.2058 4.35302C22.9911 4.61476 23.5904 4.91541 23.9832 5.22497C24.3817 5.53898 24.5 5.80465 24.5 6Z" stroke="white"/>
<path d="M11 18C11.6667 18.3333 12.75 19 14 18" stroke="#BA4A6A"/>
<path d="M17.5 18C18.1667 18.3333 19.25 19 20.5 18" stroke="#BA4A6A"/>
</g>
<defs>
<clipPath id="clip0_6775_5300">
<rect width="32" height="32" rx="16" fill="white"/>
</clipPath>
</defs>
</svg>
