<svg width="32" height="32" viewBox="0 0 32 32" fill="none" xmlns="http://www.w3.org/2000/svg">
<g clip-path="url(#clip0_6796_6260)">
<rect width="32" height="32" rx="16" fill="#7859BA"/>
<path d="M31.8326 27.821C31.8326 34.1093 27.4777 39.0711 22.261 39.0711C17.0443 39.0711 12.6895 34.1093 12.6895 27.821C12.6895 21.5326 17.0443 16.5708 22.261 16.5708C27.4777 16.5708 31.8326 21.5326 31.8326 27.821Z" fill="#91D898" stroke="#BA4A6A"/>
<circle cx="22.8198" cy="15.5117" r="6.77391" fill="#EFD2DA" stroke="#BA4A6A"/>
<path d="M22.8813 27.2614C22.8813 33.8296 18.0511 39.071 12.1906 39.071C6.33014 39.071 1.5 33.8296 1.5 27.2614C1.5 20.6931 6.33014 15.4517 12.1906 15.4517C18.0511 15.4517 22.8813 20.6931 22.8813 27.2614Z" fill="#91D898" stroke="#BA4A6A"/>
<path d="M4.07422 14.8145C4.07422 12.053 6.3128 9.81445 9.07422 9.81445H14.3342C17.0956 9.81445 19.3342 12.053 19.3342 14.8145V21.2594H4.07422V14.8145Z" fill="#BA4A6A"/>
<circle cx="11.7052" cy="13.63" r="7.12997" fill="#EFD2DA" stroke="#BA4A6A"/>
<path fill-rule="evenodd" clip-rule="evenodd" d="M19.0762 11.8196C18.4172 12.0052 17.722 12.1045 17.0037 12.1045C14.1255 12.1045 11.6196 10.5109 10.3201 8.15788C9.27172 10.6862 6.9031 12.5287 4.07422 12.8254C4.4762 8.98969 7.7201 6 11.6623 6C15.2524 6 18.2635 8.47959 19.0762 11.8196Z" fill="#BA4A6A"/>
<path d="M8 15C8.49123 15.3333 9.28947 16 10.2105 15" stroke="#BA4A6A" stroke-width="0.7"/>
<path d="M12.7891 15C13.2803 15.3333 14.0785 16 14.9996 15" stroke="#BA4A6A" stroke-width="0.7"/>
</g>
<path d="M18.166 6C18.166 6.03952 18.1386 6.17226 17.8611 6.37416C17.5945 6.56809 17.1766 6.76358 16.6152 6.93632C15.4985 7.27992 13.9254 7.5 12.166 7.5C10.4067 7.5 8.83356 7.27992 7.71686 6.93632C7.15546 6.76358 6.73755 6.56809 6.47095 6.37416C6.19342 6.17226 6.16602 6.03952 6.16602 6C6.16602 5.96048 6.19342 5.82774 6.47095 5.62584C6.73755 5.43191 7.15546 5.23642 7.71686 5.06368C8.83356 4.72008 10.4067 4.5 12.166 4.5C13.9254 4.5 15.4985 4.72008 16.6152 5.06368C17.1766 5.23642 17.5945 5.43191 17.8611 5.62584C18.1386 5.82774 18.166 5.96048 18.166 6Z" stroke="white"/>
<defs>
<clipPath id="clip0_6796_6260">
<rect width="32" height="32" rx="16" fill="white"/>
</clipPath>
</defs>
</svg>
