<svg width="32" height="32" viewBox="0 0 32 32" fill="none" xmlns="http://www.w3.org/2000/svg">
<g clip-path="url(#clip0_6775_5343)">
<rect width="32" height="32" rx="16" fill="#EFD2DA"/>
<path d="M31.1666 27.821C31.1666 34.1093 26.8117 39.0711 21.595 39.0711C16.3783 39.0711 12.0234 34.1093 12.0234 27.821C12.0234 21.5326 16.3783 16.5708 21.595 16.5708C26.8117 16.5708 31.1666 21.5326 31.1666 27.821Z" fill="#91D898" stroke="#BA4A6A"/>
<circle cx="22.1538" cy="15.5117" r="6.77391" fill="#EFD2DA" stroke="#BA4A6A"/>
<path d="M22.2152 27.2614C22.2152 33.8296 17.3851 39.071 11.5246 39.071C5.66412 39.071 0.833984 33.8296 0.833984 27.2614C0.833984 20.6931 5.66412 15.4517 11.5246 15.4517C17.3851 15.4517 22.2152 20.6931 22.2152 27.2614Z" fill="#91D898" stroke="#BA4A6A"/>
<path d="M3.4082 14.8145C3.4082 12.053 5.64678 9.81445 8.4082 9.81445H13.6682C16.4296 9.81445 18.6682 12.053 18.6682 14.8145V21.2594H3.4082V14.8145Z" fill="#BA4A6A"/>
<circle cx="11.0392" cy="13.63" r="7.12997" fill="#EFD2DA" stroke="#BA4A6A"/>
<path fill-rule="evenodd" clip-rule="evenodd" d="M18.4101 11.8195C17.7512 12.0051 17.0561 12.1043 16.3377 12.1043C13.4596 12.1043 10.9536 10.5107 9.65413 8.15774C8.60576 10.6861 6.23712 12.5286 3.4082 12.8253C3.81024 8.98961 7.05412 6 10.9962 6C14.5864 6 17.5974 8.47954 18.4101 11.8195Z" fill="#BA4A6A"/>
<circle cx="8.7503" cy="14.3934" r="0.762997" fill="#BA4A6A"/>
<circle cx="13.3284" cy="14.3934" r="0.762997" fill="#BA4A6A"/>
</g>
<defs>
<clipPath id="clip0_6775_5343">
<rect width="32" height="32" rx="16" fill="white"/>
</clipPath>
</defs>
</svg>
