<svg width="32" height="32" viewBox="0 0 32 32" fill="none" xmlns="http://www.w3.org/2000/svg">
<g clip-path="url(#clip0_6775_5287)">
<circle cx="15.75" cy="16" r="15.5" fill="#7859BA" stroke="#7859BA"/>
<circle cx="15.5" cy="33" r="15.5" fill="#BDA4F2" stroke="#BA4A6A"/>
<circle cx="15.75" cy="16" r="9.5" fill="#EFD2DA" stroke="#BA4A6A"/>
<path fill-rule="evenodd" clip-rule="evenodd" d="M25.4515 13.7983C24.0368 14.5648 22.4166 15 20.6946 15C16.9229 15 13.6389 12.9119 11.9355 9.82858C10.8111 12.5395 8.52856 14.6487 5.70508 15.5389C5.94601 10.2301 10.3263 6 15.6946 6C20.461 6 24.4486 9.33471 25.4515 13.7983Z" fill="#BA4A6A"/>
<path d="M24.5 6C24.5 6.19535 24.3817 6.46102 23.9832 6.77503C23.5904 7.08459 22.9911 7.38524 22.2058 7.64698C20.6406 8.16872 18.4465 8.5 16 8.5C13.5535 8.5 11.3594 8.16872 9.79415 7.64698C9.00893 7.38524 8.40955 7.08459 8.01675 6.77503C7.61831 6.46102 7.5 6.19535 7.5 6C7.5 5.80465 7.61831 5.53898 8.01675 5.22497C8.40955 4.91541 9.00893 4.61476 9.79415 4.35302C11.3594 3.83128 13.5535 3.5 16 3.5C18.4465 3.5 20.6406 3.83128 22.2058 4.35302C22.9911 4.61476 23.5904 4.91541 23.9832 5.22497C24.3817 5.53898 24.5 5.80465 24.5 6Z" stroke="white"/>
<path d="M11.25 18C11.9167 18.3333 13 19 14.25 18" stroke="#BA4A6A"/>
<path d="M17.75 18C18.4167 18.3333 19.5 19 20.75 18" stroke="#BA4A6A"/>
</g>
<defs>
<clipPath id="clip0_6775_5287">
<rect width="32" height="32" rx="16" fill="white"/>
</clipPath>
</defs>
</svg>
