<svg width="32" height="32" viewBox="0 0 32 32" fill="none" xmlns="http://www.w3.org/2000/svg">
<g clip-path="url(#clip0_6775_5321)">
<circle cx="15.75" cy="16" r="16" fill="#EFD2DA"/>
<path d="M30.9001 27.8331C30.9001 34.2043 26.4877 39.2332 21.2 39.2332C15.9124 39.2332 11.5 34.2043 11.5 27.8331C11.5 21.462 15.9124 16.4331 21.2 16.4331C26.4877 16.4331 30.9001 21.462 30.9001 27.8331Z" fill="#BDA4F2" stroke="#BA4A6A"/>
<circle cx="21.7661" cy="15.3667" r="6.86669" fill="#EFD2DA" stroke="#BA4A6A"/>
<path d="M22.1667 26.4467C22.1667 33.1016 17.2727 38.4134 11.3334 38.4134C5.39404 38.4134 0.5 33.1016 0.5 26.4467C0.5 19.7917 5.39404 14.48 11.3334 14.48C17.2727 14.48 22.1667 19.7917 22.1667 26.4467Z" fill="#BDA4F2" stroke="#BA4A6A"/>
<circle cx="11.6059" cy="13.686" r="7.18603" fill="#EFD2DA" stroke="#BA4A6A"/>
<path fill-rule="evenodd" clip-rule="evenodd" d="M19.0632 11.995C17.9761 12.5838 16.7311 12.9181 15.408 12.9181C12.509 12.9181 9.98493 11.3132 8.67573 8.94342C7.81127 11.0273 6.05639 12.6485 3.88574 13.3325C4.0705 9.25171 7.4374 6 11.5638 6C15.2277 6 18.2928 8.56367 19.0632 11.995Z" fill="#BA4A6A"/>
<circle cx="9.30083" cy="14.4546" r="0.768603" fill="#BA4A6A"/>
<circle cx="13.9112" cy="14.4546" r="0.768603" fill="#BA4A6A"/>
</g>
<defs>
<clipPath id="clip0_6775_5321">
<rect width="32" height="32" rx="16" fill="white"/>
</clipPath>
</defs>
</svg>
