<svg width="32" height="32" viewBox="0 0 32 32" fill="none" xmlns="http://www.w3.org/2000/svg">
<g clip-path="url(#clip0_6796_6278)">
<circle cx="15.75" cy="16" r="16" fill="#7859BA"/>
<path d="M31.9001 27.8331C31.9001 34.2043 27.4877 39.2332 22.2 39.2332C16.9124 39.2332 12.5 34.2043 12.5 27.8331C12.5 21.462 16.9124 16.4331 22.2 16.4331C27.4877 16.4331 31.9001 21.462 31.9001 27.8331Z" fill="#BDA4F2" stroke="#BA4A6A"/>
<circle cx="22.7661" cy="15.3667" r="6.86669" fill="#EFD2DA" stroke="#BA4A6A"/>
<path d="M23.1667 26.4467C23.1667 33.1016 18.2727 38.4134 12.3334 38.4134C6.39404 38.4134 1.5 33.1016 1.5 26.4467C1.5 19.7917 6.39404 14.48 12.3334 14.48C18.2727 14.48 23.1667 19.7917 23.1667 26.4467Z" fill="#BDA4F2" stroke="#BA4A6A"/>
<circle cx="12.6059" cy="13.686" r="7.18603" fill="#EFD2DA" stroke="#BA4A6A"/>
<path fill-rule="evenodd" clip-rule="evenodd" d="M20.0633 11.9953C18.9762 12.584 17.7312 12.9183 16.4082 12.9183C13.5092 12.9183 10.9851 11.3134 9.67595 8.94361C8.81145 11.0276 7.05649 12.6488 4.88574 13.3327C5.07037 9.25185 8.43732 6 12.5638 6C16.2278 6 19.293 8.56381 20.0633 11.9953Z" fill="#BA4A6A"/>
<path d="M18.5 6C18.5 6.03952 18.4726 6.17226 18.1951 6.37416C17.9285 6.56809 17.5106 6.76358 16.9492 6.93632C15.8325 7.27992 14.2593 7.5 12.5 7.5C10.7407 7.5 9.16754 7.27992 8.05085 6.93632C7.48944 6.76358 7.07153 6.56809 6.80494 6.37416C6.5274 6.17226 6.5 6.03952 6.5 6C6.5 5.96048 6.5274 5.82774 6.80494 5.62584C7.07153 5.43191 7.48944 5.23642 8.05085 5.06368C9.16754 4.72008 10.7407 4.5 12.5 4.5C14.2593 4.5 15.8325 4.72008 16.9492 5.06368C17.5106 5.23642 17.9285 5.43191 18.1951 5.62584C18.4726 5.82774 18.5 5.96048 18.5 6Z" stroke="white"/>
<path d="M9 15C9.49123 15.3333 10.2895 16 11.2105 15" stroke="#BA4A6A" stroke-width="0.7"/>
<path d="M13.7891 15C14.2803 15.3333 15.0785 16 15.9996 15" stroke="#BA4A6A" stroke-width="0.7"/>
</g>
<defs>
<clipPath id="clip0_6796_6278">
<rect width="32" height="32" rx="16" fill="white"/>
</clipPath>
</defs>
</svg>
