<svg width="14" height="14" viewBox="0 0 14 14" fill="none" xmlns="http://www.w3.org/2000/svg">
<circle cx="6.99935" cy="7.00033" r="5.83333" fill="#D7CEEB"/>
<path d="M5.5 10V4.75H7.39C7.81 4.75 8.1575 4.8225 8.4325 4.9675C8.7075 5.1075 8.9125 5.2975 9.0475 5.5375C9.1825 5.7775 9.25 6.0525 9.25 6.3625C9.25 6.6525 9.185 6.92 9.055 7.165C8.925 7.405 8.7225 7.6 8.4475 7.75C8.1725 7.895 7.82 7.9675 7.39 7.9675H6.4V10H5.5ZM6.4 7.2325H7.3375C7.6925 7.2325 7.9475 7.155 8.1025 7C8.2575 6.84 8.335 6.6275 8.335 6.3625C8.335 6.0875 8.2575 5.8725 8.1025 5.7175C7.9475 5.5625 7.6925 5.485 7.3375 5.485H6.4V7.2325Z" fill="white"/>
</svg>
